<svg width="174" height="39" viewBox="0 0 174 39" fill="none" xmlns="http://www.w3.org/2000/svg">
<g id="Frame 82">
<g id="Group">
<g id="Group_2">
<path id="Vector" d="M16.043 26.8064C13.8667 25.998 11.6281 25.8737 9.57614 26.4333C8.14596 26.8064 6.77796 27.5526 5.53432 28.4853L4.66376 29.2315L4.41504 29.4802L4.97467 29.9777C5.03685 29.9777 5.03686 30.0399 5.09904 30.102C5.22341 30.2264 5.34778 30.2886 5.53432 30.4129L5.9074 30.6617L6.28049 30.3508C6.34268 30.2886 6.46704 30.1642 6.5914 30.102C7.71068 29.1693 8.95431 28.5475 10.2601 28.2366C11.939 27.8013 13.7423 27.8635 15.5456 28.5475C17.0379 29.1071 20.0849 29.7911 23.7536 28.2366L23.878 28.1744L24.0645 27.9879C24.0645 27.9257 24.1267 27.9257 24.1889 27.8635C24.4998 27.4904 24.8107 27.1173 25.0594 26.682L26.303 24.7544L24.3132 25.8737C21.3907 27.4904 18.7169 27.8013 16.043 26.8064Z" fill="#55B02E"/>
<path id="Vector_2" d="M7.52364 20.0906C9.20255 19.6553 11.0058 19.7175 12.8091 20.4015C14.7989 21.1477 19.8978 22.2048 25.6186 17.0437L26.5513 16.111L26.6135 16.0488L26.8622 15.8001L26.7378 15.4891C26.6756 15.2404 26.5513 14.9295 26.4269 14.6186L26.116 13.748L25.4942 14.3699C25.432 14.4942 25.3076 14.5564 25.1833 14.6808C22.4473 17.479 18.2189 20.3393 13.3687 18.5982C11.1924 17.7899 8.95382 17.6655 6.90182 18.2251C4.91201 18.7848 3.17091 19.8419 1.55418 21.3342V21.2721L0.621456 22.267C0.621456 22.3291 0.559286 22.3292 0.497104 22.3913L0.310547 22.5779L0.372732 22.8266C0.434914 23.1375 0.559274 23.4484 0.621456 23.7593L0.994551 24.7542L1.61637 23.9459C1.67855 23.8215 1.80291 23.7593 1.86509 23.635C3.17091 22.4535 4.97419 20.7746 7.52364 20.0906Z" fill="#55B02E"/>
<path id="Vector_3" d="M1.49238 18.9715C2.92256 17.4792 4.53928 16.5464 6.28037 16.049C7.95928 15.6137 9.76255 15.6759 11.5658 16.3599C17.1622 18.4119 22.0124 15.0541 24.1266 13.2508L24.9349 12.4424L25.2458 12.1937L24.9971 11.8206C24.8106 11.6341 24.6862 11.3854 24.4997 11.1366L24.1266 10.6392L23.6913 11.0744C23.6291 11.1366 23.5047 11.261 23.4426 11.3232C20.8309 13.8104 16.7891 16.3599 12.1876 14.6188C10.0113 13.8104 7.77273 13.6861 5.72074 14.2457C4.41492 14.6188 3.17128 15.2406 1.92764 16.049L0.621818 17.1061C0.497455 17.2304 0.435273 17.2926 0.310909 17.417L0.186557 17.5413V17.7279C0.124375 18.1632 0.124367 18.5984 0.0621856 18.9715L0 20.5261L1.0571 19.4068C1.18146 19.2824 1.30583 19.0959 1.49238 18.9715Z" fill="#55B02E"/>
<path id="Vector_4" d="M17.8466 31.0349L17.7222 31.408L17.8466 31.0349C17.66 30.9727 17.5357 30.9105 17.3491 30.8483C15.1728 30.04 12.9342 29.9156 10.8822 30.4753C10.4469 30.5996 10.0117 30.724 9.57639 30.9105L8.08401 31.5945L7.71094 31.7811L8.95457 32.2163C9.32766 32.3407 9.70075 32.4651 10.0738 32.5894L10.2604 32.6516L10.4469 32.5894C10.6335 32.5273 10.82 32.4029 11.0066 32.4029C11.1309 32.4029 11.2553 32.3407 11.3797 32.2785C12.872 31.9054 14.4887 31.9054 16.2298 32.4651C16.4164 32.5272 16.5408 32.5894 16.7273 32.6516L17.0382 32.776L17.2247 32.7138C17.66 32.5894 18.1575 32.4651 18.5306 32.2785L20.2717 31.6567L18.4684 31.2214C18.2818 31.1592 18.0331 31.0971 17.8466 31.0349Z" fill="#55B02E"/>
<path id="Vector_5" d="M27.3597 18.1631L26.427 19.0958C26.3027 19.2202 26.1783 19.3445 26.0539 19.4689C23.5045 21.894 19.4005 24.5056 14.799 22.7645C12.6227 21.9562 10.3841 21.8318 8.33213 22.3915C6.40449 22.9511 4.66338 23.946 3.10884 25.4384L2.30048 26.3089L2.05176 26.6198L2.30048 26.9929C2.48703 27.2416 2.6114 27.4282 2.73576 27.6769L3.10884 28.2365L3.54412 27.6769C3.6063 27.6147 3.73066 27.4904 3.79284 27.4282C5.2852 25.8114 6.90193 24.8165 8.76739 24.3191C10.4463 23.8838 12.2496 23.946 14.0528 24.63C15.6074 25.1896 17.2241 25.3762 18.8408 25.1896C21.7012 24.8787 24.5616 23.262 26.6758 21.4587C26.8001 21.3344 26.9245 21.2722 27.0488 21.1478L27.2354 20.9613V20.7747C27.2354 20.4016 27.2976 19.9664 27.2976 19.5933L27.3597 18.1631Z" fill="#55B02E"/>
<path id="Vector_6" d="M3.73045 12.4423L3.54391 12.0692L3.73045 12.4423C4.10354 12.2557 4.53883 12.1313 4.91192 12.007C6.59083 11.5717 8.3941 11.6339 10.1974 12.3179C11.3788 12.7532 12.5603 12.9397 13.8661 12.9397C16.4777 12.9397 19.0894 12.007 21.5145 10.2037L22.4472 9.45752L22.7581 9.20879L22.1985 8.77351C22.0119 8.58697 21.7632 8.40043 21.5145 8.27607L21.1414 8.02734L20.8305 8.27607C20.7061 8.33825 20.6439 8.46261 20.5195 8.52479C17.2239 11.0121 13.9283 11.6961 10.8192 10.5146C8.58065 9.70625 6.34209 9.51971 4.10355 10.2037C3.917 10.2659 3.73045 10.3281 3.48173 10.3902L3.35738 10.4524L3.17082 10.639C3.17082 10.7012 3.10865 10.7012 3.04647 10.7633C2.79774 11.1364 2.48682 11.4473 2.23809 11.8204L1.05664 13.6237L2.98428 12.6288C3.29519 12.6288 3.54391 12.5044 3.73045 12.4423Z" fill="#55B02E"/>
<path id="Vector_7" d="M8.82967 8.21393L9.01621 8.27611C9.82457 8.58702 11.0682 8.89793 12.6228 8.89793C14.2395 8.89793 15.794 8.52484 17.3486 7.90302L19.2762 6.97029L17.9704 6.53503C17.5973 6.41067 17.2242 6.2863 16.7889 6.22412H16.6024L16.4159 6.28629C16.2293 6.34847 16.0428 6.47285 15.8562 6.53503C13.9908 7.21903 12.1253 7.34339 10.322 6.84594C10.1355 6.78376 9.94894 6.72156 9.7624 6.65938L9.57586 6.5972L9.3893 6.65938C9.01621 6.78375 8.64313 6.90812 8.27004 7.09466L6.83984 7.71648L8.33222 8.15174C8.45659 8.08956 8.64312 8.15175 8.82967 8.21393Z" fill="#55B02E"/>
</g>
</g>
<path id="My Wallet" d="M39.8321 30V10.26H42.9961L50.2481 26.584H49.3801L56.6321 10.26H59.7681V30H56.4921V15.356H57.5001L50.8641 30H48.7081L42.0721 15.356H43.1081V30H39.8321ZM63.6074 36.356L62.7954 33.584C63.6727 33.3973 64.4101 33.1827 65.0074 32.94C65.6047 32.6973 66.0994 32.38 66.4914 31.988C66.8834 31.596 67.2101 31.092 67.4714 30.476L68.1714 28.824L68.0874 30.196L61.9274 15.86H65.6514L70.0754 26.892H69.2634L73.7154 15.86H77.2434L70.8034 30.784C70.3741 31.792 69.9074 32.6227 69.4034 33.276C68.8994 33.948 68.3581 34.48 67.7794 34.872C67.2007 35.2827 66.5661 35.6 65.8754 35.824C65.1847 36.048 64.4287 36.2253 63.6074 36.356ZM92.5421 30L85.5701 10.26H89.3221L94.6981 26.444H93.5781L99.3741 10.26H102.062L107.438 26.444H106.402L112.03 10.26H115.558L108.53 30H105.534L100.326 14.824H100.942L95.5381 30H92.5421ZM121.957 30.28C120.725 30.28 119.642 29.9907 118.709 29.412C117.775 28.8147 117.047 27.9653 116.525 26.864C116.002 25.7627 115.741 24.4467 115.741 22.916C115.741 21.3853 116.002 20.0787 116.525 18.996C117.047 17.8947 117.775 17.0547 118.709 16.476C119.642 15.8787 120.725 15.58 121.957 15.58C123.151 15.58 124.197 15.8787 125.093 16.476C126.007 17.0547 126.614 17.8387 126.913 18.828H126.605L126.913 15.86H130.273C130.217 16.4387 130.161 17.0267 130.105 17.624C130.067 18.2213 130.049 18.8093 130.049 19.388V30H126.577L126.549 27.088H126.885C126.586 28.0587 125.979 28.8333 125.065 29.412C124.15 29.9907 123.114 30.28 121.957 30.28ZM122.937 27.592C124.038 27.592 124.925 27.2093 125.597 26.444C126.269 25.66 126.605 24.484 126.605 22.916C126.605 21.348 126.269 20.1813 125.597 19.416C124.925 18.6507 124.038 18.268 122.937 18.268C121.835 18.268 120.949 18.6507 120.277 19.416C119.605 20.1813 119.269 21.348 119.269 22.916C119.269 24.484 119.595 25.66 120.249 26.444C120.921 27.2093 121.817 27.592 122.937 27.592ZM133.86 30V9.392H137.36V30H133.86ZM141.161 30V9.392H144.661V30H141.161ZM155.294 30.28C152.923 30.28 151.066 29.6267 149.722 28.32C148.378 27.0133 147.706 25.2213 147.706 22.944C147.706 21.4693 147.995 20.1813 148.574 19.08C149.152 17.9787 149.955 17.12 150.982 16.504C152.027 15.888 153.24 15.58 154.622 15.58C155.984 15.58 157.123 15.8693 158.038 16.448C158.952 17.0267 159.643 17.8387 160.11 18.884C160.595 19.9293 160.838 21.152 160.838 22.552V23.476H150.534V21.628H158.346L157.87 22.02C157.87 20.7133 157.59 19.7147 157.03 19.024C156.488 18.3333 155.695 17.988 154.65 17.988C153.492 17.988 152.596 18.3987 151.962 19.22C151.346 20.0413 151.038 21.1893 151.038 22.664V23.028C151.038 24.5587 151.411 25.7067 152.158 26.472C152.923 27.2187 153.996 27.592 155.378 27.592C156.18 27.592 156.927 27.4893 157.618 27.284C158.327 27.06 158.999 26.7053 159.634 26.22L160.67 28.572C159.998 29.1133 159.195 29.5333 158.262 29.832C157.328 30.1307 156.339 30.28 155.294 30.28ZM169.795 30.28C168.115 30.28 166.845 29.8413 165.987 28.964C165.128 28.0867 164.699 26.7707 164.699 25.016V18.492H161.983V15.86H164.699V12.248L168.199 11.352V15.86H171.979V18.492H168.199V24.792C168.199 25.7627 168.385 26.444 168.759 26.836C169.132 27.228 169.645 27.424 170.299 27.424C170.653 27.424 170.952 27.396 171.195 27.34C171.456 27.284 171.708 27.2093 171.951 27.116V29.888C171.633 30.0187 171.279 30.112 170.887 30.168C170.513 30.2427 170.149 30.28 169.795 30.28Z" fill="white"/>
</g>
</svg>
